<svg stroke="currentColor" fill="rgb(115, 115, 115)" stroke-width="0" viewBox="0 0 256 256" height="1em" width="1em" xmlns="http://www.w3.org/2000/svg"><path d="M192,96a64,64,0,1,1-64-64A64,64,0,0,1,192,96Z" opacity="0.2"></path><path d="M230.92,212c-15.23-26.33-38.7-45.21-66.09-54.16a72,72,0,1,0-73.66,0C63.78,166.78,40.31,185.66,25.08,212a8,8,0,1,0,13.85,8c18.84-32.56,52.14-52,89.07-52s70.23,19.44,89.07,52a8,8,0,1,0,13.85-8ZM72,96a56,56,0,1,1,56,56A56.06,56.06,0,0,1,72,96Z"></path><svg stroke="currentColor" fill="none" stroke-width="2" viewBox="0 0 24 24" aria-hidden="true" height="1em" width="1em" xmlns="http://www.w3.org/2000/svg"><path stroke-linecap="round" stroke-linejoin="round" d="M4 6h16M4 12h16M4 18h7"></path></svg></svg>